<svg xmlns="http://www.w3.org/2000/svg" width="500" height="500" viewBox="0 0 500 500" version="1.1"><path d="M 138.368 178.948 C 96.758 188.649, 68.969 222.878, 69.008 264.381 C 69.026 284.444, 74.675 301.222, 86.742 317.055 C 100.444 335.033, 116.647 345.086, 139.906 350.040 C 157.801 353.852, 177.768 351.174, 194.866 342.669 C 206.612 336.826, 212.880 331.777, 230.987 313.572 L 246.475 298.001 232 283.500 C 224.039 275.525, 217.065 269, 216.501 269 C 215.938 269, 208.282 276.227, 199.489 285.059 C 186.076 298.530, 182.372 301.673, 176.500 304.565 C 161.223 312.089, 146.621 311.382, 131.840 302.403 C 125.034 298.269, 119.399 291.812, 114.944 283.046 C 112.093 277.435, 111.623 275.401, 111.251 267.059 C 110.742 255.632, 112.645 248.387, 118.455 239.634 C 132.494 218.484, 160.955 212.740, 181.364 226.938 C 183.639 228.521, 208.503 252.750, 236.618 280.781 C 267.712 311.782, 290.235 333.444, 294.117 336.080 C 313.304 349.109, 337.396 354.524, 358.475 350.545 C 377.286 346.994, 392.764 339.048, 405.414 326.444 C 424.084 307.843, 432.175 286.073, 430.664 258.500 C 429.899 244.534, 428.175 237.980, 421.952 225.375 C 410.684 202.553, 390.054 185.984, 365.142 179.748 C 352.681 176.629, 334.703 176.652, 322.793 179.804 C 312.591 182.503, 300.195 188.331, 292.187 194.193 C 285.753 198.903, 255 228.929, 255 230.501 C 255 231.065, 261.514 238.028, 269.476 245.976 L 283.951 260.425 301.226 243.375 C 320.332 224.516, 324.718 221.629, 337.204 219.697 C 364.671 215.445, 389 236.489, 389 264.500 C 389 276.976, 385.659 285.599, 377.156 295.074 C 367.518 305.813, 350.894 311.600, 336.793 309.124 C 322.355 306.589, 322.515 306.723, 265 249.582 C 236.125 220.894, 210.673 196.025, 208.440 194.317 C 201.968 189.366, 186.975 182.297, 177.877 179.907 C 166.110 176.816, 149.264 176.407, 138.368 178.948" stroke="none" fill="#1c1c1c" fill-rule="evenodd"/><path d="M 218.269 1.541 C 161.644 8.823, 113.397 32.540, 72.969 72.969 C 37.555 108.382, 14.761 150.151, 4.987 197.541 C -1.724 230.079, -1.712 269.878, 5.018 302.590 C 12.491 338.908, 26.594 369.431, 51.413 403 C 60.371 415.116, 84.690 439.468, 97 448.647 C 144.535 484.096, 192.081 500, 250.524 500 C 318.989 500, 378.781 475.282, 427.031 427.031 C 457.331 396.732, 478.989 360.767, 490.107 322.289 C 493.960 308.953, 497.706 289.962, 498.602 279.218 C 498.979 274.698, 499.673 271, 500.144 271 C 500.615 271, 501 261.325, 501 249.500 C 501 237.675, 500.612 228, 500.138 228 C 499.664 228, 498.964 224.512, 498.582 220.250 C 497.633 209.655, 493.824 190.576, 490.053 177.525 C 479.064 139.494, 457.074 103.011, 427.031 72.969 C 385.976 31.913, 337.163 8.174, 280.006 1.466 C 264.741 -0.325, 232.476 -0.286, 218.269 1.541 M 138.368 178.948 C 96.758 188.649, 68.969 222.878, 69.008 264.381 C 69.026 284.444, 74.675 301.222, 86.742 317.055 C 100.444 335.033, 116.647 345.086, 139.906 350.040 C 157.801 353.852, 177.768 351.174, 194.866 342.669 C 206.612 336.826, 212.880 331.777, 230.987 313.572 L 246.475 298.001 232 283.500 C 224.039 275.525, 217.065 269, 216.501 269 C 215.938 269, 208.282 276.227, 199.489 285.059 C 186.076 298.530, 182.372 301.673, 176.500 304.565 C 161.223 312.089, 146.621 311.382, 131.840 302.403 C 125.034 298.269, 119.399 291.812, 114.944 283.046 C 112.093 277.435, 111.623 275.401, 111.251 267.059 C 110.742 255.632, 112.645 248.387, 118.455 239.634 C 132.494 218.484, 160.955 212.740, 181.364 226.938 C 183.639 228.521, 208.503 252.750, 236.618 280.781 C 267.712 311.782, 290.235 333.444, 294.117 336.080 C 313.304 349.109, 337.396 354.524, 358.475 350.545 C 377.286 346.994, 392.764 339.048, 405.414 326.444 C 424.084 307.843, 432.175 286.073, 430.664 258.500 C 429.899 244.534, 428.175 237.980, 421.952 225.375 C 410.684 202.553, 390.054 185.984, 365.142 179.748 C 352.681 176.629, 334.703 176.652, 322.793 179.804 C 312.591 182.503, 300.195 188.331, 292.187 194.193 C 285.753 198.903, 255 228.929, 255 230.501 C 255 231.065, 261.514 238.028, 269.476 245.976 L 283.951 260.425 301.226 243.375 C 320.332 224.516, 324.718 221.629, 337.204 219.697 C 364.671 215.445, 389 236.489, 389 264.500 C 389 276.976, 385.659 285.599, 377.156 295.074 C 367.518 305.813, 350.894 311.600, 336.793 309.124 C 322.355 306.589, 322.515 306.723, 265 249.582 C 236.125 220.894, 210.673 196.025, 208.440 194.317 C 201.968 189.366, 186.975 182.297, 177.877 179.907 C 166.110 176.816, 149.264 176.407, 138.368 178.948 M 0.426 250.500 C 0.427 262.600, 0.571 267.413, 0.747 261.195 C 0.923 254.977, 0.922 245.077, 0.746 239.195 C 0.569 233.313, 0.425 238.400, 0.426 250.500" stroke="none" fill="#fbfbfb" fill-rule="evenodd"/></svg>