<svg xmlns="http://www.w3.org/2000/svg" viewBox="0 0 1080 1080">
  <path fill="#fff" d="M540 20C930 20 1060 150 1060 540S930 1060 540 1060 20 930 20 540 150 20 540 20Z" />
  <path transform="translate(151.2 151.2) scale(.72)" d="M527.3 135.5c-15.1 4.2-27.9 15.7-32.9 29.4-.9 2.5-4.5 11.1-7.9 19.1-3.5 8-9.9 23.3-14.3 34-4.5 10.7-11.5 27.6-15.7 37.5-8.8 20.9-24.9 59.9-28.9 70-1.5 3.8-7.2 17.6-12.6 30.5s-16.6 39.7-24.9 59.5c-8.2 19.8-17 40.7-19.6 46.5-2.5 5.8-8.7 20.2-13.7 32s-12.8 30.4-17.4 41.4c-4.6 10.9-8.4 20.2-8.4 20.7 0 1.7-2 .9-14.8-5.5-60.5-30.3-113-67.7-133.8-95.4-6-7.9-10.4-15-10.4-16.9s12.8-8.8 21.5-11.7c9.2-2.9 29.8-6.8 46.5-8.8 18-2.1 80-1.4 106 1.1 11.3 1.1 20.8 1.7 21.1 1.3.9-1 37.9-90 37.9-91.2 0-.6-.6-1-1.3-1s-10.9-1.1-22.7-2.4c-41.7-4.7-60.1-5.8-95.8-5.7-39.4.1-58.9 1.6-86.8 6.6-25.4 4.6-41.5 9.6-58.9 18.2-26.4 13.1-43.3 28.6-53.9 49.3-5.3 10.3-7.1 15.7-9.1 27.4-6.4 37.4 9.3 74.5 48.3 114 22.7 23 44.4 40.1 79.2 62.3 24.7 15.8 44 26.7 71.8 40.5 8.9 4.5 16.2 8.5 16.2 8.9s-2.7 7.2-5.9 15.1c-5.5 13.4-9.5 22.8-22.8 54.3-3 7.1-7.4 17.7-9.8 23.5-5.4 13.4-27.6 66-32.2 76.5-8.5 19.2-12.3 29.5-13.5 36.3-4.7 27.9 18.3 55.1 46.7 55.2 3.3 0 9.5-.7 13.7-1.5 5.6-1 182.6-59.3 217.3-71.5 6-2.1 87.9-29.5 129.4-43.2 23.2-7.7 41.9-14.3 41.5-14.7-.5-.4-5.6-1.6-11.4-2.5-40.1-6.7-91.2-17.6-139-29.7l-31.6-8-38.4 13c-21.2 7.1-50.7 17-65.6 22s-27.6 9.1-28.2 9.1c-1.4 0-1.3-.3 19.1-48.7 9-21.4 17-40.5 17.8-42.7.8-2.1 1.9-4 2.4-4.3.6-.2 7.8 2.2 16 5.3 39.8 14.9 91.8 31.3 131.5 41.4 60.2 15.4 157.2 32.9 204.7 37.1 8.2.7 14.4 1.7 14.7 2.3 8.4 20.7 43.8 97.5 46.8 101.7 10.4 14.8 29.6 23 46.7 20 25.6-4.6 43.5-28.3 40.1-53.1-1.3-9.4-2.9-13.8-13.5-37.5-5.6-12.7-11.1-25.1-12.3-27.6l-2-4.7 10.2-1.1c28-3.2 63.2-12.3 83.1-21.6 25.8-12 48.4-33.5 58-55.1 9-20.2 9.8-45 2.3-68.4-10.8-33.9-39-68.4-83.8-102.7-27.8-21.3-73.4-48.7-116.8-70.1-31.6-15.7-91.6-42.1-92.8-40.9-.2.2 5.3 12.9 12.2 28.3 7 15.3 20.2 44.8 29.4 65.4l16.7 37.5 7.4 3.9c65.9 34.4 118.5 75.3 132.6 103 1.3 2.6 2.2 5.4 2 6-.9 2.2-14 8.4-24.3 11.4-16.5 4.9-38.2 8-67.5 9.7l-10.5.6-1.3-2.8c-.7-1.5-12.2-27.3-25.6-57.3s-27.2-61-30.8-69c-16-35.7-33.7-75.9-35.5-80.5-2.2-5.5-24.9-56.3-33.5-75-3.1-6.6-11.2-24.6-18-40-6.9-15.4-19.8-44.2-28.7-64s-18.3-41-20.9-47c-2.7-6.1-9.3-21.1-14.8-33.5s-12.4-28-15.3-34.8c-8.9-20.2-18.7-30.8-33-35.6-7.5-2.4-21-3-27.7-1.1m25.9 196.7c30.7 69.2 117 263.5 132 297.2 9.3 20.8 16.6 38.1 16.4 38.4-1 1-44.9-6.1-74-11.9-38.7-7.7-91.8-21.1-125.1-31.5-34.7-10.9-83.5-27.9-83.5-29.1 0-.2 4.1-10.2 9.1-22.1s12-28.7 15.6-37.2 8.4-20 10.8-25.5c2.3-5.5 6.3-15 8.8-21 2.5-6.1 9.2-21.8 14.7-35 31.8-75 47-111.1 54.3-128.7 4.5-10.9 8.4-19.8 8.7-19.8s5.8 11.8 12.2 26.2Z" />
</svg>
